<svg id="Layer_1" data-name="Layer 1" xmlns="http://www.w3.org/2000/svg" viewBox="0 0 875.42 630"><defs><style>.cls-1{fill:#1e1e32;}</style></defs><title>K star</title><path class="cls-1" d="M1427.69,1065H1200.86a10,10,0,0,1-8.13-4.18l-96.91-135.25-97.9,136.65a6.69,6.69,0,0,1-5.42,2.78H838.57a29.23,29.23,0,0,1-29.15-29.17v-.3a215.15,215.15,0,0,0-6.4-52.36c-23.43-94.94-109.16-165.3-211.3-165.3h-.3a29.2,29.2,0,0,1-29.13-29.12v-78a28.58,28.58,0,0,1,28.54-28.67q9.67,0,19.54-.76c111.65-9,198.3-103.38,199-215.4,0-1.12,0-2.24,0-3.36A27.21,27.21,0,0,1,836.54,435H916a29.15,29.15,0,0,1,29.15,29.17v.3A217.37,217.37,0,0,0,1044,646.8L984.32,730c-.7-.46-1.4-.93-2.1-1.43s-1.4-.93-2.13-1.43C939,698.83,903.26,658.6,880.22,614.73c-.83-1.56-1.63-3.1-2.43-4.66-.17-.34-.37-.67-.5-1A322.45,322.45,0,0,1,736.36,750l1,.5c1.56.8,3.1,1.63,4.63,2.43,1.9,1,3.73,2,5.57,3.07s3.73,2.1,5.53,3.17A324.25,324.25,0,0,1,835.22,828c1.17,1.33,2.3,2.7,3.44,4.06.16.2.36.44.5.64,14.6,17.63,26.76,37.13,37.6,57.26.2.34.36.67.53,1a319.28,319.28,0,0,1,19.9,48.74l358.47-500.49a10,10,0,0,1,8.13-4.18h163.9a10,10,0,0,1,8.13,15.82L1221.56,750l214.26,299.18A10,10,0,0,1,1427.69,1065Z" transform="translate(-562.29 -435)"/></svg>